<?xml version="1.0" standalone="no"?>
<!DOCTYPE svg PUBLIC "-//W3C//DTD SVG 20010904//EN"
 "http://www.w3.org/TR/2001/REC-SVG-20010904/DTD/svg10.dtd">
<svg version="1.0" xmlns="http://www.w3.org/2000/svg"
 width="96.000000pt" height="96.000000pt" viewBox="0 0 96.000000 96.000000"
 preserveAspectRatio="xMidYMid meet">
<metadata>
Created by potrace 1.14, written by Peter Selinger 2001-2017
</metadata>
<g transform="translate(0.000000,96.000000) scale(0.100000,-0.100000)"
fill="#000000" stroke="none">
<path d="M185 922 l-51 -3 0 -439 0 -440 55 -1 c31 0 146 0 256 0 l200 1 90
90 90 90 1 350 1 350 -51 0 c-28 1 -161 2 -296 3 -135 1 -268 1 -295 -1z m541
-41 l60 -1 0 -315 0 -315 -86 0 -87 0 1 -76 c1 -42 -2 -80 -5 -86 -6 -9 -113
-11 -375 -9 l-60 1 1 398 c1 218 3 399 3 402 2 4 186 4 548 1z m24 -674 c0 -1
-22 -24 -48 -50 l-49 -48 0 50 -1 51 49 0 c27 0 49 -1 49 -3z"/>
<path d="M290 690 c0 -25 45 -28 54 -4 9 23 8 24 -24 24 -23 0 -30 -4 -30 -20z"/>
<path d="M400 690 c0 -19 7 -20 135 -20 128 0 135 1 135 20 0 19 -7 20 -135
20 -128 0 -135 -1 -135 -20z"/>
<path d="M290 580 c0 -11 5 -21 10 -21 38 -5 45 -3 45 15 0 14 -8 20 -27 23
-23 3 -28 0 -28 -17z"/>
<path d="M402 582 c-8 -23 11 -27 140 -27 116 1 123 2 126 21 3 19 -2 20 -129
20 -102 -1 -133 -4 -137 -14z"/>
<path d="M290 459 c0 -16 5 -20 27 -17 39 4 41 38 2 38 -23 0 -29 -5 -29 -21z"/>
<path d="M402 463 c3 -16 19 -18 136 -21 127 -2 132 -2 132 18 0 19 -6 20
-136 20 -124 0 -135 -2 -132 -17z"/>
<path d="M290 345 c0 -21 3 -22 52 -16 3 1 5 9 4 18 -2 11 -13 18 -29 18 -21
2 -27 -3 -27 -20z"/>
<path d="M403 353 c-10 -24 8 -28 134 -27 120 0 128 1 131 20 3 19 -3 19 -129
19 -93 0 -133 -3 -136 -12z"/>
</g>
</svg>
